<mxfile host="app.diagrams.net">
  <diagram name="IntelligentEmailAgentWorkflow">
    <mxGraphModel dx="1035" dy="557" grid="1" gridSize="10" guides="1" tooltips="1" connect="1" arrows="1" fold="1" page="1" pageScale="1" pageWidth="827" pageHeight="1169" math="0" shadow="0">
      <root>
        <mxCell id="0"/>
        <mxCell id="1" parent="0"/>
        <mxCell id="2" value="1. Planning and Requirements Gathering" style="rounded=0;whiteSpace=wrap;html=1;" vertex="1" parent="1">
          <mxGeometry x="70" y="50" width="200" height="80" as="geometry"/>
        </mxCell>
        <mxCell id="3" value="Objective Definition" style="rounded=0;whiteSpace=wrap;html=1;" vertex="1" parent="1">
          <mxGeometry x="300" y="30" width="200" height="40" as="geometry"/>
        </mxCell>
        <mxCell id="4" value="Stakeholder Identification" style="rounded=0;whiteSpace=wrap;html=1;" vertex="1" parent="1">
          <mxGeometry x="300" y="90" width="200" height="40" as="geometry"/>
        </mxCell>
        <mxCell id="5" value="Requirement Analysis" style="rounded=0;whiteSpace=wrap;html=1;" vertex="1" parent="1">
          <mxGeometry x="300" y="150" width="200" height="40" as="geometry"/>
        </mxCell>
        <mxCell id="6" value="Feasibility Study" style="rounded=0;whiteSpace=wrap;html=1;" vertex="1" parent="1">
          <mxGeometry x="300" y="210" width="200" height="40" as="geometry"/>
        </mxCell>
        <mxCell id="7" value="2. Research and Design" style="rounded=0;whiteSpace=wrap;html=1;" vertex="1" parent="1">
          <mxGeometry x="70" y="150" width="200" height="80" as="geometry"/>
        </mxCell>
        <mxCell id="8" value="Literature Review" style="rounded=0;whiteSpace=wrap;html=1;" vertex="1" parent="1">
          <mxGeometry x="300" y="270" width="200" height="40" as="geometry"/>
        </mxCell>
        <mxCell id="9" value="Technology Stack Selection" style="rounded=0;whiteSpace=wrap;html=1;" vertex="1" parent="1">
          <mxGeometry x="300" y="330" width="200" height="40" as="geometry"/>
        </mxCell>
        <mxCell id="10" value="Design Specifications" style="rounded=0;whiteSpace=wrap;html=1;" vertex="1" parent="1">
          <mxGeometry x="300" y="390" width="200" height="40" as="geometry"/>
        </mxCell>
        <mxCell id="11" value="Prototyping" style="rounded=0;whiteSpace=wrap;html=1;" vertex="1" parent="1">
          <mxGeometry x="300" y="450" width="200" height="40" as="geometry"/>
        </mxCell>
        <mxCell id="12" value="3. Data Collection and Preprocessing" style="rounded=0;whiteSpace=wrap;html=1;" vertex="1" parent="1">
          <mxGeometry x="70" y="250" width="200" height="80" as="geometry"/>
        </mxCell>
        <mxCell id="13" value="Data Gathering" style="rounded=0;whiteSpace=wrap;html=1;" vertex="1" parent="1">
          <mxGeometry x="300" y="510" width="200" height="40" as="geometry"/>
        </mxCell>
        <mxCell id="14" value="Data Cleaning" style="rounded=0;whiteSpace=wrap;html=1;" vertex="1" parent="1">
          <mxGeometry x="300" y="570" width="200" height="40" as="geometry"/>
        </mxCell>
        <mxCell id="15" value="Feature Engineering" style="rounded=0;whiteSpace=wrap;html=1;" vertex="1" parent="1">
          <mxGeometry x="300" y="630" width="200" height="40" as="geometry"/>
        </mxCell>
        <mxCell id="16" value="4. Model Development" style="rounded=0;whiteSpace=wrap;html=1;" vertex="1" parent="1">
          <mxGeometry x="70" y="350" width="200" height="80" as="geometry"/>
        </mxCell>
        <mxCell id="17" value="Algorithm Selection" style="rounded=0;whiteSpace=wrap;html=1;" vertex="1" parent="1">
          <mxGeometry x="300" y="690" width="200" height="40" as="geometry"/>
        </mxCell>
        <mxCell id="18" value="Model Training" style="rounded=0;whiteSpace=wrap;html=1;" vertex="1" parent="1">
          <mxGeometry x="300" y="750" width="200" height="40" as="geometry"/>
        </mxCell>
        <mxCell id="19" value="Model Evaluation" style="rounded=0;whiteSpace=wrap;html=1;" vertex="1" parent="1">
          <mxGeometry x="300" y="810" width="200" height="40" as="geometry"/>
        </mxCell>
        <mxCell id="20" value="5. System Integration" style="rounded=0;whiteSpace=wrap;html=1;" vertex="1" parent="1">
          <mxGeometry x="70" y="450" width="200" height="80" as="geometry"/>
        </mxCell>
        <mxCell id="21" value="Backend Development" style="rounded=0;whiteSpace=wrap;html=1;" vertex="1" parent="1">
          <mxGeometry x="300" y="870" width="200" height="40" as="geometry"/>
        </mxCell>
        <mxCell id="22" value="Frontend Development" style="rounded=0;whiteSpace=wrap;html=1;" vertex="1" parent="1">
          <mxGeometry x="300" y="930" width="200" height="40" as="geometry"/>
        </mxCell>
        <mxCell id="23" value="API Integration" style="rounded=0;whiteSpace=wrap;html=1;" vertex="1" parent="1">
          <mxGeometry x="300" y="990" width="200" height="40" as="geometry"/>
        </mxCell>
        <mxCell id="24" value="6. Testing and Validation" style="rounded=0;whiteSpace=wrap;html=1;" vertex="1" parent="1">
          <mxGeometry x="70" y="550" width="200" height="80" as="geometry"/>
        </mxCell>
        <mxCell id="25" value="Unit Testing" style="rounded=0;whiteSpace=wrap;html=1;" vertex="1" parent="1">
          <mxGeometry x="300" y="1050" width="200" height="40" as="geometry"/>
        </mxCell>
        <mxCell id="26" value="Integration Testing" style="rounded=0;whiteSpace=wrap;html=1;" vertex="1" parent="1">
          <mxGeometry x="300" y="1110" width="200" height="40" as="geometry"/>
        </mxCell>
        <mxCell id="27" value="User Acceptance Testing (UAT)" style="rounded=0;whiteSpace=wrap;html=1;" vertex="1" parent="1">
          <mxGeometry x="300" y="1170" width="200" height="40" as="geometry"/>
        </mxCell>
        <mxCell id="28" value="7. Deployment" style="rounded=0;whiteSpace=wrap;html=1;" vertex="1" parent="1">
          <mxGeometry x="70" y="650" width="200" height="80" as="geometry"/>
        </mxCell>
        <mxCell id="29" value="Infrastructure Setup" style="rounded=0;whiteSpace=wrap;html=1;" vertex="1" parent="1">
          <mxGeometry x="300" y="1230" width="200" height="40" as="geometry"/>
        </mxCell>
        <mxCell id="30" value="Continuous Integration/Continuous Deployment (CI/CD)" style
